<?xml version="1.0" encoding="iso-8859-1"?>
<!-- Generator: Adobe Illustrator 19.0.0, SVG Export Plug-In . SVG Version: 6.00 Build 0)  -->
<svg version="1.1" id="Capa_1" xmlns="http://www.w3.org/2000/svg" xmlns:xlink="http://www.w3.org/1999/xlink" x="0px" y="0px"
	 viewBox="0 0 387.4 387.4" style="enable-background:new 0 0 387.4 387.4;" xml:space="preserve">
<g>
	<g>
		<path d="M193.7,0C86.9,0,0,86.9,0,193.7s86.9,193.7,193.7,193.7s193.7-86.9,193.7-193.7S300.5,0,193.7,0z M193.7,367.4
			C97.9,367.4,20,289.5,20,193.7S97.9,20,193.7,20s173.7,77.9,173.7,173.7S289.5,367.4,193.7,367.4z"/>
	</g>
</g>
<g>
	<g>
		<path d="M297.9,162.7h-73.2V89.5c-0.1-5.5-4.6-9.8-10.1-9.8c0,0,0,0-0.1,0h-41.7c-5.5-0.1-10,4.2-10.1,9.7c0,0,0,0,0,0.1v73.2
			H89.5c-5.5,0.1-9.8,4.6-9.8,10.1c0,0,0,0,0,0.1v41.7c-0.1,5.5,4.2,10,9.7,10.1c0,0,0,0,0.1,0h73.2v73.2c0.1,5.5,4.6,9.8,10.1,9.8
			c0,0,0,0,0.1,0h41.7c5.5,0.1,10-4.2,10.1-9.7c0,0,0,0,0-0.1v-73.2h73.2c5.5-0.1,9.8-4.6,9.8-10.1c0,0,0,0,0-0.1v-41.7
			C307.8,167.4,303.5,162.8,297.9,162.7z M287.7,204.7h-73.1c-5.4-0.1-9.8,4.3-9.9,9.6c0,0.1,0,0.1,0,0.2v73.2h-22v-73.2
			c0.1-5.4-4.3-9.8-9.6-9.8c-0.1,0-0.1,0-0.2,0H99.7v-22h73.1c5.4,0.1,9.8-4.3,9.9-9.6c0-0.1,0-0.1,0-0.2V99.7h22v73.2
			c-0.1,5.4,4.3,9.8,9.6,9.8c0.1,0,0.1,0,0.2,0h73.2V204.7z"/>
	</g>
</g>
<g>
</g>
<g>
</g>
<g>
</g>
<g>
</g>
<g>
</g>
<g>
</g>
<g>
</g>
<g>
</g>
<g>
</g>
<g>
</g>
<g>
</g>
<g>
</g>
<g>
</g>
<g>
</g>
<g>
</g>
</svg>
