<svg id="Capa_1" enable-background="new 0 0 511.998 511.998" height="512" viewBox="0 0 511.998 511.998" width="512" xmlns="http://www.w3.org/2000/svg"><g><circle cx="165.607" cy="273.407" fill="#365e7d" r="50.231"/><path d="m175.76 322.607c-3.278.68-6.668 1.035-10.149 1.035-27.746 0-50.236-22.489-50.236-50.236s22.489-50.236 50.236-50.236c3.481 0 6.871.355 10.149 1.035-22.875 4.678-40.087 24.925-40.087 49.201s17.212 44.523 40.087 49.201z" fill="#2b4d66"/><ellipse cx="156.41" cy="308.57" fill="#f9f6f9" rx="101.601" ry="39.31"/><path d="m258.008 308.574c-12.483 22.682-53.24 40.871-101.598 40.871s-89.115-18.188-101.598-40.871c12.483 6.15 53.24 10.666 101.598 10.666s89.116-4.516 101.598-10.666z" fill="#dddaec"/><path d="m39.032 347.88h426.323v43.251h-426.323z" fill="#f9f6f9"/><path d="m26.389 369.14h451.609v97.569h-451.609z" fill="#9d6b6b"/><path d="m26.389 369.14h40.665v97.569h-40.665z" fill="#8b5e5e"/><path d="m36.492 511.908h-18.175c-10.116 0-18.317-8.201-18.317-18.317v-291.422c0-10.116 8.201-18.317 18.317-18.317h18.175c10.116 0 18.317 8.201 18.317 18.317v291.422c0 10.116-8.201 18.317-18.317 18.317z" fill="#9d6b6b"/><path d="m39.032 511.728c-.832.122-1.674.183-2.537.183h-18.177c-10.118-.001-18.318-8.201-18.318-18.319v-291.428c0-10.108 8.2-18.308 18.318-18.308h18.176c.863 0 1.705.061 2.537.183-8.91 1.218-15.791 8.87-15.791 18.126v291.428c0 9.255 6.881 16.917 15.792 18.135z" fill="#8b5e5e"/><g><path d="m215.915 190.487h-30.599c-2.793 0-5.361-1.529-6.692-3.985-1.331-2.455-1.21-5.442.314-7.782l22.22-34.101h-14.902c-4.204 0-7.611-3.408-7.611-7.611 0-4.204 3.407-7.611 7.611-7.611h28.946c2.793 0 5.361 1.529 6.692 3.985 1.331 2.455 1.21 5.442-.314 7.782l-22.22 34.101h16.555c4.204 0 7.611 3.408 7.611 7.611s-3.407 7.611-7.611 7.611z" fill="#dddaec"/></g><g><path d="m176.473 121.006h-44.095c-2.793 0-5.361-1.529-6.692-3.985s-1.21-5.442.314-7.782l35.401-54.332h-27.669c-4.204 0-7.611-3.408-7.611-7.611s3.407-7.611 7.611-7.611h41.712c2.793 0 5.361 1.529 6.692 3.985 1.331 2.455 1.21 5.442-.314 7.782l-35.401 54.332h30.051c4.204 0 7.611 3.408 7.611 7.611s-3.406 7.611-7.61 7.611z" fill="#dddaec"/></g><path d="m449.574 312.257 15.781 35.623-15.781 27.765-93.57 62.363-199.593-90.13c0-29.33 3.572-52.489 7.703-69.457 5.348-21.982 24.052-38.179 46.592-40.158 3.39-.294 6.992-.558 10.798-.761 5.764-.304 11.996-.487 18.623-.467 17.672.059 35.074 24.531 57.358 28.679 23.991 4.466 53.143-10.965 79.862 1.311 23.848 10.95 48.246 25.655 72.227 45.232z" fill="#9dc6fb"/><path d="m356.004 438.008-199.593-90.13c0-29.33 3.572-52.489 7.703-69.457 5.348-21.982 24.052-38.179 46.592-40.158 3.39-.294 6.992-.558 10.798-.761-10.149 39.884-10.94 126.513 134.5 200.506z" fill="#698ed5"/><path d="m377.346 267.024-65.116 46.331c-6.528 4.645-15.586 3.118-20.231-3.41l-51.873-72.91c36.698.122 85.685 6.312 137.22 29.989z" fill="#f9f6f9"/><g><circle cx="388.854" cy="123.231" fill="#d3effb" r="116.07"/><path d="m409.135 237.619c-6.427 1.114-13.042 1.686-19.784 1.686-64.104 0-116.074-51.97-116.074-116.074s51.97-116.074 116.074-116.074c6.743 0 13.357.572 19.784 1.686-54.671 9.384-96.28 57.027-96.28 114.388s41.61 105.003 96.28 114.388z" fill="#9dc6fb"/><path d="m388.854 138.017h-53.926c-8.166 0-14.786-6.62-14.786-14.786s6.62-14.786 14.786-14.786h53.926c8.166 0 0 6.62 0 14.786s0 9.911 0 14.786z" fill="#365e7d"/><path d="m388.854 138.017c-8.166 0-14.786-6.62-14.786-14.786v-37.756c0-8.166 6.62-14.786 14.786-14.786s14.786 6.62 14.786 14.786v37.756c.001 8.166-6.62 14.786-14.786 14.786z" fill="#2b4d66"/><g fill="#365e7d"><g><path d="m388.855 41.292c-3.907 0-7.073-3.167-7.073-7.073v-23.399c0-3.906 3.166-7.073 7.073-7.073s7.073 3.167 7.073 7.073v23.399c0 3.906-3.167 7.073-7.073 7.073z"/><path d="m388.855 242.715c-3.907 0-7.073-3.167-7.073-7.073v-23.399c0-3.906 3.166-7.073 7.073-7.073s7.073 3.167 7.073 7.073v23.399c0 3.906-3.167 7.073-7.073 7.073z"/></g><g><path d="m501.265 130.304h-23.399c-3.907 0-7.073-3.167-7.073-7.073s3.166-7.073 7.073-7.073h23.399c3.907 0 7.073 3.167 7.073 7.073s-3.166 7.073-7.073 7.073z"/><path d="m299.842 130.304h-23.399c-3.906 0-7.073-3.167-7.073-7.073s3.167-7.073 7.073-7.073h23.399c3.907 0 7.073 3.167 7.073 7.073s-3.166 7.073-7.073 7.073z"/></g><g><path d="m474.25 81.005c-2.444 0-4.822-1.269-6.132-3.538-1.953-3.383-.794-7.709 2.589-9.662l11.962-6.906c3.381-1.952 7.709-.794 9.662 2.589s.794 7.709-2.589 9.662l-11.962 6.906c-1.113.643-2.33.949-3.53.949z"/><path d="m291.51 186.51c-2.444 0-4.821-1.268-6.132-3.538-1.953-3.383-.794-7.709 2.589-9.662l11.961-6.906c3.382-1.953 7.708-.795 9.662 2.589 1.953 3.383.794 7.709-2.589 9.662l-11.961 6.906c-1.113.644-2.33.949-3.53.949z"/></g><g><path d="m438.148 44.915c-1.2 0-2.417-.306-3.53-.949-3.383-1.953-4.542-6.279-2.589-9.662l6.906-11.961c1.953-3.383 6.279-4.542 9.662-2.589s4.542 6.279 2.589 9.662l-6.906 11.961c-1.311 2.27-3.688 3.538-6.132 3.538z"/><path d="m332.643 227.655c-1.2 0-2.416-.306-3.53-.949-3.383-1.953-4.542-6.279-2.589-9.662l6.905-11.961c1.952-3.383 6.277-4.543 9.662-2.589 3.383 1.953 4.542 6.279 2.589 9.662l-6.905 11.961c-1.31 2.27-3.688 3.538-6.132 3.538z"/></g><g><path d="m339.561 44.915c-2.444 0-4.822-1.269-6.132-3.538l-6.905-11.961c-1.953-3.383-.794-7.709 2.589-9.662 3.382-1.952 7.709-.794 9.662 2.589l6.905 11.961c1.953 3.383.794 7.709-2.589 9.662-1.113.643-2.33.949-3.53.949z"/><path d="m445.067 227.655c-2.444 0-4.821-1.268-6.132-3.537l-6.906-11.961c-1.953-3.383-.795-7.709 2.589-9.662 3.382-1.953 7.708-.795 9.662 2.589l6.906 11.961c1.953 3.383.795 7.709-2.589 9.662-1.114.643-2.33.948-3.53.948z"/></g><g><path d="m303.458 81.005c-1.2 0-2.417-.306-3.53-.949l-11.961-6.906c-3.383-1.953-4.542-6.279-2.589-9.662 1.952-3.383 6.28-4.543 9.662-2.589l11.961 6.906c3.383 1.953 4.542 6.279 2.589 9.662-1.31 2.269-3.688 3.538-6.132 3.538z"/><path d="m486.199 186.51c-1.2 0-2.416-.306-3.53-.949l-11.962-6.906c-3.383-1.953-4.542-6.279-2.589-9.662 1.952-3.384 6.277-4.543 9.662-2.589l11.962 6.906c3.383 1.953 4.542 6.279 2.589 9.662-1.31 2.269-3.688 3.538-6.132 3.538z"/></g></g><path d="m388.855 246.374c-67.902 0-123.143-55.242-123.143-123.143s55.241-123.143 123.143-123.143 123.143 55.242 123.143 123.143-55.241 123.143-123.143 123.143zm0-232.14c-60.101 0-108.997 48.896-108.997 108.997s48.896 108.997 108.997 108.997 108.997-48.896 108.997-108.997c0-60.102-48.896-108.997-108.997-108.997z" fill="#95d6a4"/></g><path d="m486.069 511.908h-18.175c-10.116 0-18.317-8.201-18.317-18.317v-181.339c0-10.116 8.201-18.317 18.317-18.317h18.175c10.116 0 18.317 8.201 18.317 18.317v181.339c0 10.116-8.2 18.317-18.317 18.317z" fill="#9d6b6b"/><path d="m487.868 511.819c-.589.061-1.198.091-1.807.091h-18.166c-10.118 0-18.318-8.2-18.318-18.318v-181.335c0-10.118 8.2-18.318 18.318-18.318h18.166c.609 0 1.218.03 1.807.091-9.266.903-16.502 8.717-16.502 18.227v181.336c0 9.509 7.236 17.323 16.502 18.226z" fill="#8b5e5e"/></g></svg>