<svg id="Capa_1" enable-background="new 0 0 514.304 514.304" height="512" viewBox="0 0 514.304 514.304" width="512" xmlns="http://www.w3.org/2000/svg"><g id="XMLID_195_"><path id="XMLID_441_" d="m282.935 440.46c2.28-15.427 9.318-29.712 20.44-40.644.167-.165.334-.33.5-.496 40.816-40.816 31.007-116.801-21.908-169.716s-128.9-62.724-169.716-21.908c-.182.182-.363.365-.543.548-10.915 11.122-25.196 18.148-40.61 20.436-17.341 2.574-34.028 10.607-47.284 24.104-31.665 32.24-31.765 84.493-.216 116.847 7.603 7.797 16.346 13.788 25.701 17.972 33.305 14.895 59.811 41.401 74.706 74.706 4.184 9.354 10.174 18.097 17.971 25.7 32.36 31.555 84.626 31.448 116.864-.232 13.499-13.266 21.531-29.965 24.095-47.317z" fill="#b35f49"/><ellipse id="XMLID_481_" cx="321.953" cy="67.803" fill="#99503d" rx="72.141" ry="57.206" transform="matrix(.707 -.707 .707 .707 46.354 247.514)"/><ellipse id="XMLID_483_" cx="106.993" cy="75.952" fill="#99503d" rx="72.141" ry="57.206" transform="matrix(.707 -.707 .707 .707 -22.369 97.902)"/><ellipse id="XMLID_96_" cx="449.198" cy="195.048" fill="#804231" rx="72.141" ry="57.206" transform="matrix(.707 -.707 .707 .707 -6.353 374.759)"/><ellipse id="XMLID_97_" cx="438.434" cy="407.393" fill="#804231" rx="72.141" ry="57.206" transform="matrix(.707 -.707 .707 .707 -159.656 429.342)"/><path id="XMLID_911_" d="m281.967 229.603-188.431 188.431c12.66 12.655 23.016 27.614 30.468 44.275 4.184 9.354 10.174 18.097 17.971 25.7 32.36 31.555 84.626 31.448 116.864-.231 13.5-13.266 21.531-29.966 24.096-47.318 2.28-15.427 9.318-29.712 20.44-40.644.167-.165.334-.33.5-.496 40.816-40.817 31.008-116.801-21.908-169.717z" fill="#99503d"/></g></svg>