<svg id="Layer_1" enable-background="new 0 0 511.965 511.965" height="512" viewBox="0 0 511.965 511.965" width="512" xmlns="http://www.w3.org/2000/svg"><g><path d="m351.737 439.334v59.566c0 7.215-5.849 13.064-13.064 13.064h-166.99c-7.215 0-13.064-5.849-13.064-13.064v-59.566c0-7.215 5.849-13.064 13.064-13.064h166.99c7.215 0 13.064 5.849 13.064 13.064z" fill="#ff9ac9"/><path d="m338.672 426.27h-83.495v85.695h83.495c7.215 0 13.064-5.849 13.064-13.064v-59.566c.001-7.216-5.848-13.065-13.064-13.065z" fill="#ff5ca8"/><path d="m238.498 447.187-203.804-141.86c-40.927-29.573-45.6-88.549-9.836-124.14 10.71-10.658 24.249-17.896 37.732-21.448l194.197 213.304z" fill="#ff7cb9"/><path d="m26.972 298.9c-40.64 32.322-26.374 97.439 19.276 115.048 15.755 5.489 11.315 3.232 20.175 5.051 35.248 5.791 172.031 28.159 172.074 28.188l12.298-29.917z" fill="#ff3997"/><path d="m231.12 426.214-155.924-234.857c-6.991-10.485-11.214-21.904-12.898-33.461-5.05-34.672 12.76-70.591 47.264-86.275 21.695-9.862 48.041-8.312 68.162-.137l63.671 340.816z" fill="#ff9ac9"/><path d="m273.467 447.697 203.804-141.859c40.927-29.573 45.6-88.549 9.836-124.14-10.71-10.658-24.249-17.896-37.732-21.448l-194.197 213.304z" fill="#ff3997"/><path d="m484.992 299.41c40.64 32.322 26.374 97.439-19.276 115.048-15.755 5.489-11.315 3.232-20.175 5.051-35.248 5.791-172.031 28.159-172.074 28.188l-12.298-29.917z" fill="#e30a6c"/><path d="m280.845 426.724 155.924-234.857c6.991-10.485 11.214-21.904 12.898-33.461 5.05-34.672-12.76-70.591-47.264-86.275-21.695-9.862-48.041-8.312-68.162-.137l-64.778 88.256-8.293 257.531z" fill="#ff5ca8"/><path d="m255.138 455.813c12.134 0 22.467-8.78 24.368-20.706l54.282-340.405c7.928-49.711-30.671-94.702-81.249-94.702-51.071 0-89.801 45.825-81.05 95.898l59.341 339.567c2.055 11.762 12.313 20.348 24.308 20.348z" fill="#f7ccdd"/><path d="m255.178.046v455.767c12.117-.019 22.429-8.791 24.329-20.704l54.282-340.404c7.789-48.844-29.339-93.127-78.611-94.659z" fill="#ff9ac9"/></g></svg>