<svg height="512" viewBox="0 0 64 64" width="512" xmlns="http://www.w3.org/2000/svg"><g id="Filled_outline" data-name="Filled outline"><path d="m9 33h42v28h-42z" fill="#efeedc"/><path d="m17 11h-8v15.85l8-8.299z" fill="#ad6327"/><path d="m7 5h12v6h-12z" fill="#ffd782"/><path d="m55 31-24.939-26-25.061 26 3 3 22-23 22 23z" fill="#b11e48"/><path d="m15 45h10v16h-10z" fill="#66342e"/><path d="m31 39h6v10h-6z" fill="#50b4f8"/><path d="m37 39h6v10h-6z" fill="#2d75bb"/><path d="m57 7a2 2 0 0 0 -2 2v-2a4 4 0 0 0 -8 0v2a2 2 0 0 0 -4 0v4h16v-4a2 2 0 0 0 -2-2z" fill="#50b4f8"/><path d="m25 53h26v8h-26z" fill="#ad6327"/><path d="m9 53h6v8h-6z" fill="#ad6327"/><path d="m25 53h8v4h-8z" fill="#d3843d"/><path d="m43 53h8v4h-8z" fill="#ffd782"/><path d="m33 53h10v4h-10z" fill="#ad6327"/><path d="m30 57h8v4h-8z" fill="#ffd782"/><path d="m38 57h8v4h-8z" fill="#d3843d"/><path d="m25 57h5v4h-5z" fill="#ad6327"/><path d="m46 57h5v4h-5z" fill="#ad6327"/><path d="m9 53h6v4h-6z" fill="#d3843d"/><path d="m15 39h10v6h-10z" fill="#2d75bb"/><path d="m9 33 21-22 21 22z" fill="#d3843d"/><path d="m7.293 34.707a1.043 1.043 0 0 0 .707.293v26a1 1 0 0 0 1 1h42a1 1 0 0 0 1-1v-26a1 1 0 0 0 .707-.293l3-3a1 1 0 0 0 .015-1.4l-24.939-26a1 1 0 0 0 -.72-.307 1 1 0 0 0 -.721.306l-11.342 11.766v-4.072h1a1 1 0 0 0 1-1v-6a1 1 0 0 0 -1-1h-12a1 1 0 0 0 -1 1v6a1 1 0 0 0 1 1h1v14.447l-3.72 3.859a1 1 0 0 0 .013 1.4zm6.707 25.293h-4v-2h4zm0-4h-4v-2h4zm10 4h-8v-14h8zm0-16h-8v-4h8zm5 16h-3v-2h3zm-3-4v-2h6v2zm11 4h-6v-2h6zm-3-4v-2h8v2zm11 4h-6v-2h6zm5 0h-3v-2h3zm0-4h-6v-2h6zm0-4h-24v-13a1 1 0 0 0 -1-1h-10a1 1 0 0 0 -1 1v13h-4v-18h40zm-38.7-20 18.7-19.553 18.7 19.553zm-3.3-26h10v4h-10zm2 12v-2h4v-2h-4v-2h6v6.147l-6 6.225v-4.372h4v-2zm20.06-11.557 23.54 24.542-1.584 1.585-21.293-22.261a1 1 0 0 0 -1.446 0l-21.293 22.261-1.584-1.583z"/><path d="m20 52h2v2h-2z"/><path d="m31 50h12a1 1 0 0 0 1-1v-10a1 1 0 0 0 -1-1h-12a1 1 0 0 0 -1 1v10a1 1 0 0 0 1 1zm7-10h4v8h-4zm-6 0h4v8h-4z"/><path d="m43 14h16a1 1 0 0 0 1-1v-4a3 3 0 0 0 -4.065-2.8 5 5 0 0 0 -9.87 0 3 3 0 0 0 -4.065 2.8v4a1 1 0 0 0 1 1zm1-5a1 1 0 0 1 2 0 1 1 0 0 0 2 0v-2a3 3 0 0 1 6 0v2a1 1 0 0 0 2 0 1 1 0 0 1 2 0v3h-14z"/></g></svg>