<svg id="Capa_1" enable-background="new 0 0 511.985 511.985" height="512" viewBox="0 0 511.985 511.985" width="512" xmlns="http://www.w3.org/2000/svg"><g><path d="m310.123 198.297-46.26 33.61c-3.78 2.74-5.34 7.56-3.9 12l17.67 54.38c12.217 37.589-30.8 69.224-62.68 46.08-.099-.1-4.641-3.428-46.3-34.17-3.609-2.614-8.699-2.783-12.55 0-41.873 30.906-46.192 34.07-46.29 34.17-31.879 23.138-74.894-8.464-62.69-46.08l17.67-54.38c1.45-4.44-.12-9.26-3.9-12-.13-.095 1.922 1.484-44.21-34.04-31.696-23.288-15.214-73.55 24.13-73.55l55.03.29c4.58 0 8.69-2.98 10.13-7.42l17.67-54.38c12.423-38.282 65.121-38.039 77.48 0l17.67 54.38c1.44 4.439 5.54 7.42 10.21 7.42h57.18c39.508.001 55.822 50.515 23.94 73.69z" fill="#ffb454"/><path d="m310.123 198.297-46.26 33.61c-3.78 2.74-5.34 7.56-3.9 12l17.67 54.38c12.217 37.589-30.8 69.224-62.68 46.08-.099-.1-4.641-3.428-46.3-34.17-1.56-1.13-3.34-1.78-5.15-1.96v-274.02c17.39.45 32.09 11.57 37.62 28.591l17.67 54.38c1.44 4.439 5.54 7.42 10.21 7.42h57.18c39.508 0 55.822 50.514 23.94 73.689z" fill="#ff7d47"/><path d="m492.953 293.148c-1.621 1.054 8.692-6.207-56.71 40.479-5.58 4.08-7.89 11.23-5.76 17.811l21.27 65.45c13.758 42.341-34.722 78.159-70.74 52.029-.1-.098-4.051-2.992-55.7-41.109-5.499-3.991-13.026-4.111-18.7 0-53.956 39.819-55.595 41.007-55.7 41.109-35.945 26.099-84.537-9.569-70.74-52.029l21.27-65.44c2.14-6.6-.19-13.78-5.8-17.86l-55.67-40.439c-36.054-26.197-17.474-83.16 27.02-83.16h68.81c6.93 0 13.04-4.43 15.18-11.03l21.26-65.439c14.02-43.138 73.445-43.05 87.44 0l21.26 65.439c2.14 6.601 8.25 11.03 15.18 11.03h69.81c44.566-.001 63.015 57.005 27.02 83.159z" fill="#de5b5b"/><path d="m492.953 293.148c-1.621 1.054 8.692-6.207-56.71 40.479-5.58 4.08-7.89 11.23-5.76 17.811l21.27 65.45c13.758 42.341-34.722 78.159-70.74 52.029-.1-.098-4.051-2.992-55.7-41.109-2.66-1.931-5.74-2.931-8.85-3.03v-323.57c19.96.2 36.89 12.84 43.22 32.311l21.26 65.439c2.14 6.601 8.25 11.03 15.18 11.03h69.81c44.566 0 63.015 57.006 27.02 83.16z" fill="#e20059"/><circle cx="315.963" cy="303.198" fill="#faf17d" r="47"/><path d="m362.963 303.198c0 25.75-20.81 46.73-46.5 46.99v-93.98c25.69.259 46.5 21.24 46.5 46.99z" fill="#f2d131"/></g></svg>