<?xml version="1.0" encoding="iso-8859-1"?>
<!-- Generator: Adobe Illustrator 19.0.0, SVG Export Plug-In . SVG Version: 6.00 Build 0)  -->
<svg version="1.1" id="Capa_1" xmlns="http://www.w3.org/2000/svg" xmlns:xlink="http://www.w3.org/1999/xlink" x="0px" y="0px"
	 viewBox="0 0 511.999 511.999" style="enable-background:new 0 0 511.999 511.999;" xml:space="preserve">
<path style="fill:#EFEDEE;" d="M83.509,194.683c-1.423,0-2.862-0.399-4.144-1.232l-46.748-30.414
	c-3.014-1.961-6.613-2.63-10.129-1.886c-3.519,0.745-6.536,2.814-8.496,5.828c-2.293,3.524-7.009,4.521-10.53,2.23
	c-3.524-2.293-4.522-7.008-2.23-10.53c4.178-6.423,10.608-10.834,18.104-12.42c7.496-1.587,15.161-0.16,21.584,4.019l46.748,30.414
	c3.524,2.293,4.522,7.008,2.23,10.531C88.437,193.464,85.998,194.683,83.509,194.683z"/>
<path style="fill:#D2D2D2;" d="M87.667,180.691L40.92,150.277c-3.502-2.278-7.375-3.733-11.387-4.332l-8.196,12.599
	c-0.792,1.217-1.49,2.476-2.111,3.763c1.024-0.514,2.113-0.911,3.263-1.155c3.518-0.744,7.115-0.074,10.129,1.886l46.748,30.414
	c1.282,0.834,2.721,1.232,4.144,1.232c2.488,0,4.928-1.22,6.387-3.462C92.188,187.698,91.191,182.983,87.667,180.691z"/>
<path style="fill:#3A484A;" d="M48.561,153.915l-10.213,15.697c-3.928,6.036-2.217,14.113,3.819,18.04l44.041,28.654l24.434-37.556
	l-44.041-28.654C60.565,146.169,52.489,147.879,48.561,153.915z"/>
<path style="fill:#506366;" d="M44.521,249.01L44.521,249.01c9.005,42.541,51.644,69.004,93.762,58.191l329.32-84.549l9.144-65.153
	l-34.753-55.826l-335.332,56.145C63.775,164.999,35.515,206.469,44.521,249.01z"/>
<path style="fill:#3A484A;" d="M467.604,196.266l-329.32,84.549c-42.118,10.813-84.757-15.649-93.762-58.191l0,0
	c-0.191-0.9-0.341-1.798-0.498-2.697c-1.652,9.36-1.596,19.189,0.498,29.083l0,0c9.005,42.541,51.644,69.004,93.762,58.191
	l329.32-84.549l9.144-65.153l-3.022-4.854L467.604,196.266z"/>
<g>
	<path style="fill:#FADC60;" d="M106.662,157.818l31.621,149.383c2.567,12.124,14.475,19.872,26.599,17.305l0,0
		c12.124-2.567,19.872-14.475,17.305-26.599l-31.621-149.383c-2.567-12.124-14.475-19.872-26.599-17.305l0,0
		C111.843,133.785,104.096,145.694,106.662,157.818z"/>
	<path style="fill:#FADC60;" d="M313.66,123.175l27.904,131.822c2.567,12.124,14.475,19.872,26.599,17.305l0,0
		c12.124-2.567,19.872-14.475,17.305-26.599l-27.904-131.822c-2.567-12.124-14.475-19.872-26.599-17.305l0,0
		C318.841,99.142,311.094,111.051,313.66,123.175z"/>
	<path style="fill:#FADC60;" d="M441.995,101.673l25.609,120.98c2.567,12.124,14.475,19.872,26.599,17.305l0,0
		c12.124-2.567,19.872-14.475,17.305-26.599L485.899,92.379c-2.567-12.124-14.475-19.872-26.599-17.305l0,0
		C447.176,77.64,439.428,89.55,441.995,101.673z"/>
</g>
<path style="fill:#F2C42C;" d="M467.604,222.652c2.567,12.124,14.475,19.872,26.599,17.305l0,0
	c12.124-2.567,19.872-14.475,17.305-26.599l-4.923-23.256c1.523,11.509-6.048,22.429-17.595,24.872l0,0
	c-12.124,2.567-24.033-5.182-26.599-17.305L467.604,222.652z"/>
<g>
	<path style="fill:#3A484A;" d="M192.475,224.96c-3.52,0-6.681-2.455-7.439-6.036l-2.091-9.875c-0.871-4.112,1.758-8.152,5.87-9.023
		c4.112-0.87,8.152,1.758,9.023,5.87l2.091,9.875c0.871,4.112-1.758,8.152-5.87,9.023
		C193.528,224.906,192.998,224.96,192.475,224.96z"/>
	<path style="fill:#3A484A;" d="M301.599,201.861c-3.52,0-6.681-2.455-7.439-6.036l-2.091-9.875
		c-0.871-4.112,1.758-8.152,5.87-9.023c4.115-0.872,8.152,1.758,9.023,5.87l2.091,9.875c0.871,4.112-1.758,8.152-5.87,9.023
		C302.651,201.807,302.121,201.861,301.599,201.861z"/>
	<path style="fill:#3A484A;" d="M244.198,219.097c-5.542,0-10.929-1.742-15.335-5.048c-3.362-2.523-4.042-7.295-1.519-10.656
		c2.524-3.362,7.295-4.041,10.656-1.519c2.354,1.768,5.483,2.404,8.584,1.749c3.099-0.656,5.7-2.507,7.138-5.076
		c2.051-3.67,6.688-4.981,10.358-2.93c3.67,2.051,4.981,6.688,2.93,10.358c-3.579,6.404-9.875,10.975-17.272,12.541
		C247.894,218.905,246.037,219.097,244.198,219.097z"/>
</g>
<g>
	<path style="fill:#F2C42C;" d="M328.276,192.224l13.288,62.772c2.567,12.124,14.475,19.872,26.599,17.305
		c12.124-2.567,19.872-14.475,17.305-26.599l-13.364-63.133L328.276,192.224z"/>
	<path style="fill:#F2C42C;" d="M138.284,307.201c2.567,12.124,14.475,19.872,26.599,17.305l0,0
		c12.124-2.567,19.872-14.475,17.305-26.599l-14.866-70.227l-43.828,9.654L138.284,307.201z"/>
</g>
<path style="fill:#C86D5C;" d="M382.255,211.509l-256.691,56.547c-13.506,2.976-23.125,14.943-23.125,28.772v86.63l292.492-64.434
	c13.506-2.976,23.125-14.944,23.125-28.772v-49.97C418.056,221.456,400.64,207.459,382.255,211.509z"/>
<circle style="fill:#3A484A;" cx="102.44" cy="383.456" r="53.96"/>
<circle style="fill:#B8B8B8;" cx="102.44" cy="383.456" r="23.494"/>
<circle style="fill:#3A484A;" cx="334.722" cy="370.091" r="67.326"/>
<circle style="fill:#B8B8B8;" cx="334.722" cy="370.091" r="29.31"/>
<g>
</g>
<g>
</g>
<g>
</g>
<g>
</g>
<g>
</g>
<g>
</g>
<g>
</g>
<g>
</g>
<g>
</g>
<g>
</g>
<g>
</g>
<g>
</g>
<g>
</g>
<g>
</g>
<g>
</g>
</svg>
