<?xml version="1.0" encoding="iso-8859-1"?>
<!-- Generator: Adobe Illustrator 19.0.0, SVG Export Plug-In . SVG Version: 6.00 Build 0)  -->
<svg version="1.1" id="Capa_1" xmlns="http://www.w3.org/2000/svg" xmlns:xlink="http://www.w3.org/1999/xlink" x="0px" y="0px"
	 viewBox="0 0 330.96 330.96" style="enable-background:new 0 0 330.96 330.96;" xml:space="preserve">
<g transform="translate(1 1)">
	<g>
		<path style="fill:#FFE100;" d="M197.573,70.678c-3.035,0-5.495-2.46-5.495-5.495V43.117c0-3.035,2.46-5.495,5.495-5.495
			c3.035,0,5.495,2.46,5.495,5.495v22.066C203.068,68.218,200.607,70.678,197.573,70.678z"/>
		<path style="fill:#FFE100;" d="M219.643,87.228c-1.671,0-3.321-0.759-4.4-2.198c-1.82-2.428-1.329-5.872,1.099-7.693
			l22.066-16.549c2.427-1.822,5.872-1.328,7.692,1.099c1.82,2.428,1.329,5.872-1.099,7.693l-22.066,16.549
			C221.947,86.87,220.79,87.228,219.643,87.228z"/>
		<path style="fill:#FFE100;" d="M263.77,114.81h-27.582c-3.035,0-5.495-2.46-5.495-5.495c0-3.035,2.46-5.495,5.495-5.495h27.582
			c3.034,0,5.495,2.46,5.495,5.495C269.265,112.349,266.805,114.81,263.77,114.81z"/>
		<polygon style="fill:#FFE100;" points="164.474,225.161 54.144,225.161 76.209,158.963 142.407,158.963 		"/>
		<polygon style="fill:#FFE100;" points="219.639,158.963 109.308,158.963 131.375,92.765 197.573,92.765 		"/>
		<polygon style="fill:#FFE100;" points="274.803,225.161 164.474,225.161 186.54,158.963 252.738,158.963 		"/>
		<polygon style="fill:#FFE100;" points="114.825,291.359 4.495,291.359 26.561,225.161 92.759,225.161 		"/>
		<polygon style="fill:#FFE100;" points="324.452,291.359 214.122,291.359 236.188,225.161 302.386,225.161 		"/>
	</g>
	<g>
		<polygon style="fill:#FFA800;" points="302.386,225.161 285.837,225.161 307.902,291.359 324.452,291.359 		"/>
		<polygon style="fill:#FFA800;" points="252.738,158.963 236.188,158.963 258.254,225.161 274.803,225.161 		"/>
		<polygon style="fill:#FFA800;" points="197.573,92.765 181.023,92.765 203.089,158.963 219.639,158.963 		"/>
	</g>
	<g>
		<polygon style="fill:#FFFFFF;" points="131.375,92.765 147.924,92.765 125.858,158.963 109.308,158.963 		"/>
		<polygon style="fill:#FFFFFF;" points="76.209,158.963 92.759,158.963 70.693,225.161 54.144,225.161 		"/>
		<polygon style="fill:#FFFFFF;" points="26.561,225.161 43.11,225.161 21.045,291.359 4.495,291.359 		"/>
	</g>
	<polygon style="fill:#FFE100;" points="214.122,291.359 114.825,291.359 136.891,225.161 192.056,225.161 	"/>
	<path d="M114.838,296.854c-0.004-0.001-0.01-0.001-0.013,0H4.495c-1.766,0-3.425-0.849-4.458-2.282
		c-1.033-1.433-1.314-3.274-0.755-4.95l22.066-66.197c0.748-2.245,2.848-3.758,5.213-3.758h66.198c2.365,0,4.465,1.513,5.213,3.758
		l21.944,65.833c0.268,0.647,0.416,1.358,0.416,2.102C120.333,294.394,117.873,296.854,114.838,296.854z M12.119,285.864h95.083
		l-18.403-55.207H30.522L12.119,285.864z"/>
	<path d="M324.465,296.854c-0.005,0-0.009,0-0.013,0h-110.33c-1.766,0-3.425-0.849-4.458-2.282c-1.033-1.433-1.314-3.274-0.755-4.95
		l22.066-66.197c0.747-2.245,2.848-3.758,5.212-3.758h66.198c2.365,0,4.465,1.513,5.212,3.758l21.945,65.833
		c0.268,0.647,0.416,1.358,0.416,2.102C329.96,294.394,327.5,296.854,324.465,296.854z M221.746,285.864h95.083l-18.403-55.207
		h-58.277L221.746,285.864z"/>
	<path d="M214.135,296.854c-0.005,0-0.008,0-0.013,0h-99.297c-1.766,0-3.425-0.849-4.458-2.282c-1.033-1.433-1.314-3.274-0.755-4.95
		l22.066-66.197c0.748-2.245,2.848-3.758,5.213-3.758h55.165c2.365,0,4.465,1.513,5.212,3.758l21.944,65.833
		c0.268,0.647,0.416,1.358,0.416,2.102C219.63,294.394,217.17,296.854,214.135,296.854z M122.449,285.864h84.049l-18.402-55.207
		h-47.245L122.449,285.864z"/>
	<path d="M164.487,230.657c-0.004-0.001-0.009-0.001-0.013,0H54.144c-1.766,0-3.425-0.849-4.458-2.282
		c-1.033-1.433-1.314-3.274-0.755-4.95l22.066-66.199c0.748-2.244,2.848-3.757,5.213-3.757h66.198c2.365,0,4.465,1.513,5.213,3.757
		l21.944,65.834c0.268,0.648,0.416,1.358,0.416,2.102C169.981,228.196,167.522,230.657,164.487,230.657z M61.767,219.667h95.083
		l-18.403-55.208H80.17L61.767,219.667z"/>
	<path d="M274.816,230.657c-0.005-0.001-0.008-0.001-0.013,0h-110.33c-1.766,0-3.425-0.849-4.458-2.282
		c-1.033-1.433-1.314-3.274-0.755-4.95l22.066-66.199c0.747-2.244,2.848-3.757,5.212-3.757h66.198c2.365,0,4.465,1.513,5.212,3.757
		l21.945,65.834c0.268,0.647,0.416,1.358,0.416,2.102C280.311,228.196,277.852,230.657,274.816,230.657z M172.098,219.667h95.083
		l-18.403-55.208h-58.277L172.098,219.667z"/>
	<path d="M219.651,164.458c-0.005,0-0.009,0-0.013,0h-110.33c-1.766,0-3.425-0.849-4.458-2.282s-1.314-3.275-0.755-4.951
		l22.066-66.198c0.748-2.244,2.848-3.757,5.213-3.757h66.198c2.365,0,4.465,1.513,5.212,3.757l21.944,65.834
		c0.268,0.647,0.416,1.358,0.416,2.102C225.146,161.998,222.687,164.458,219.651,164.458z M116.932,153.468h95.083L193.612,98.26
		h-58.277L116.932,153.468z"/>
	<path d="M192.057,65.161c-3.035,0-5.495-2.46-5.495-5.495V37.601c0-3.035,2.46-5.495,5.495-5.495c3.035,0,5.495,2.46,5.495,5.495
		v22.066C197.552,62.701,195.091,65.161,192.057,65.161z"/>
	<path d="M214.126,81.711c-1.671,0-3.321-0.759-4.4-2.198c-1.82-2.428-1.329-5.872,1.099-7.693l22.066-16.549
		c2.427-1.822,5.872-1.328,7.692,1.099c1.82,2.428,1.329,5.872-1.099,7.693l-22.066,16.549
		C216.431,81.353,215.274,81.711,214.126,81.711z"/>
	<path d="M258.254,109.293h-27.583c-3.035,0-5.495-2.46-5.495-5.495c0-3.035,2.46-5.495,5.495-5.495h27.583
		c3.035,0,5.495,2.46,5.495,5.495C263.749,106.833,261.289,109.293,258.254,109.293z"/>
</g>
<g>
</g>
<g>
</g>
<g>
</g>
<g>
</g>
<g>
</g>
<g>
</g>
<g>
</g>
<g>
</g>
<g>
</g>
<g>
</g>
<g>
</g>
<g>
</g>
<g>
</g>
<g>
</g>
<g>
</g>
</svg>
