<?xml version="1.0" encoding="iso-8859-1"?>
<!-- Generator: Adobe Illustrator 19.0.0, SVG Export Plug-In . SVG Version: 6.00 Build 0)  -->
<svg version="1.1" id="Capa_1" xmlns="http://www.w3.org/2000/svg" xmlns:xlink="http://www.w3.org/1999/xlink" x="0px" y="0px"
	 viewBox="0 0 512 512" style="enable-background:new 0 0 512 512;" xml:space="preserve">
<path style="fill:#F6A96C;" d="M421,360.701h-30v-120h30c33.091,0,60,26.909,60,60S454.091,360.701,421,360.701z"/>
<path style="fill:#FFBD86;" d="M121,360.701H91c-33.091,0-60-26.909-60-60s26.909-60,60-60h30V360.701z"/>
<path style="fill:#FED2A4;" d="M421,337.6l-11.7,12.301l9.3,22.2c-12.599,78.3-80.7,138.6-162.599,138.6
	c-90.901,0-165-74.101-165-165v-135l37.5-30h271.8l20.7,30L421,337.6L421,337.6z"/>
<path style="fill:#FFBD86;" d="M421,337.6l-11.7,12.301l9.3,22.2c-12.599,78.3-80.7,138.6-162.599,138.6v-330h144.3l20.7,30
	L421,337.6L421,337.6z"/>
<path style="fill:#292929;" d="M421,337.673l-71.719-47.813l-16.641,24.961l86.027,57.35c1.406-8.643,2.333-17.443,2.333-26.472
	L421,337.673L421,337.673z"/>
<rect x="301" y="270.7" style="fill:#444444;" width="30" height="30"/>
<rect x="181" y="270.7" style="fill:#5A5A5A;" width="30" height="30"/>
<path style="fill:#B34F03;" d="M331,390.701v30h-4.501c-26.1,0-51.299-9.6-70.499-27.001c-19.2,17.401-44.399,27.001-70.499,27.001
	H181v-30h4.501c21.599,0,41.999-9,56.4-24.901l4.499-5.099h19.2l4.499,5.099c14.401,15.901,34.801,24.901,56.4,24.901H331z"/>
<path style="fill:#913F02;" d="M326.499,390.701H331v30h-4.501c-26.1,0-51.299-9.6-70.499-27.001v-32.999h9.6l4.499,5.099
	C284.5,381.701,304.9,390.701,326.499,390.701z"/>
<polygon style="fill:#444444;" points="299.5,256.6 282.7,281.5 256,263.799 217.599,238.3 234.401,213.099 256,227.501 "/>
<polygon style="fill:#292929;" points="299.5,256.6 282.7,281.5 256,263.799 256,227.501 "/>
<path style="fill:#444444;" d="M316,330.701c-24.814,0-45-20.186-45-45s20.186-45,45-45s45,20.186,45,45
	S340.814,330.701,316,330.701z"/>
<path style="fill:#5A5A5A;" d="M497,90.701c-61.199,0-123.401-23.101-173.5-65.4C304.6,9.4,280.3,1.299,256,1.299
	S207.4,9.4,188.5,25.301C138.401,67.6,77.199,90.701,16,90.701H0v15c0,74.399,61.601,135,136,135h240c74.399,0,136-60.601,136-135
	v-15C512,90.701,497,90.701,497,90.701z"/>
<path style="fill:#444444;" d="M512,90.701v15c0,74.399-61.601,135-136,135H256V1.299c24.3,0,48.6,8.101,67.5,24.001
	C373.599,67.599,435.801,90.7,497,90.7L512,90.701L512,90.701z"/>
<polygon style="fill:#EDE9E8;" points="277.301,120.701 309.101,152.501 287.8,173.799 256,141.999 224.2,173.799 202.899,152.501 
	234.699,120.701 202.899,88.901 224.2,67.6 256,99.4 287.8,67.6 309.101,88.901 "/>
<polygon style="fill:#DFD7D5;" points="277.301,120.701 309.101,152.501 287.8,173.799 256,141.999 256,99.4 287.8,67.6 
	309.101,88.901 "/>
<g>
</g>
<g>
</g>
<g>
</g>
<g>
</g>
<g>
</g>
<g>
</g>
<g>
</g>
<g>
</g>
<g>
</g>
<g>
</g>
<g>
</g>
<g>
</g>
<g>
</g>
<g>
</g>
<g>
</g>
</svg>
