<?xml version="1.0" encoding="iso-8859-1"?>
<!-- Generator: Adobe Illustrator 19.0.0, SVG Export Plug-In . SVG Version: 6.00 Build 0)  -->
<svg version="1.1" id="Capa_1" xmlns="http://www.w3.org/2000/svg" xmlns:xlink="http://www.w3.org/1999/xlink" x="0px" y="0px"
	 viewBox="0 0 511.999 511.999" style="enable-background:new 0 0 511.999 511.999;" xml:space="preserve">
<circle style="fill:#A1A3AF;" cx="395.319" cy="102.981" r="32.054"/>
<path style="fill:#7E818E;" d="M394.013,104.282c-8.655-8.655-11.322-21.026-8.008-31.975c-4.888,1.479-9.492,4.146-13.355,8.008
	c-12.518,12.518-12.518,32.813,0,45.331c12.518,12.518,32.813,12.518,45.331,0c3.863-3.864,6.53-8.468,8.008-13.355
	C415.039,115.604,402.668,112.937,394.013,104.282z"/>
<polygon style="fill:#E33240;" points="372.649,125.646 283.424,149.554 288.128,210.166 348.741,214.87 "/>
<path style="fill:#525B60;" d="M196.542,398.25H98.785c-30.784,0-55.738,24.955-55.738,55.738v17.33H252.28v-17.33
	C252.279,423.205,227.324,398.25,196.542,398.25z"/>
<path style="fill:#242B33;" d="M153.586,398.25H98.785c-30.784,0-55.738,24.954-55.738,55.738v17.33h54.801v-17.33
	C97.848,423.205,122.802,398.25,153.586,398.25z"/>
<rect x="21.312" y="471.314" style="fill:#525B60;" width="252.697" height="33.07"/>
<g>
	<rect x="21.312" y="471.314" style="fill:#242B33;" width="68.079" height="33.07"/>
	<path style="fill:#242B33;" d="M451.055,317.191c-41.803,41.803-98.17,60.163-152.761,55.078
		c-42.767-3.978-84.449-22.338-117.189-55.078c-74.544-74.554-74.544-195.407,0-269.95L451.055,317.191z"/>
</g>
<path style="fill:#525B60;" d="M451.055,317.191c-41.803,41.803-98.17,60.163-152.761,55.078
	c-16.411-8.698-31.827-19.953-45.64-33.765c-65.958-65.968-73.559-168.187-22.784-242.497L451.055,317.191z"/>
<circle style="fill:#A1A3AF;" cx="151.299" cy="354.105" r="44.146"/>
<path d="M411.106,277.235L411.106,277.235c-2.973,2.973-2.973,7.792,0,10.765l29.078,29.077
	c-71.803,66.144-184.037,64.386-253.695-5.271c-69.657-69.657-71.417-181.89-5.271-253.695l205.425,205.426
	c2.973,2.973,7.792,2.973,10.765,0l0,0c2.973-2.973,2.973-7.792,0-10.765l-40.176-40.176l19.923-74.354
	c5.679,2.92,11.919,4.386,18.16,4.386c9.913,0,19.828-3.683,27.487-11.048c15.703-15.101,16.179-40.518,1.027-56.172
	c-8.4-8.678-20.043-13.025-32.228-11.924c-7.475,0.676-14.655,3.507-20.571,8.125c-15.71,12.262-19.364,33.217-10.976,49.533
	l-74.354,19.923l-99.211-99.21c-1.427-1.428-3.363-2.23-5.382-2.23s-3.955,0.802-5.382,2.23
	c-71.124,71.124-76.878,183.234-17.276,260.999c-2.337-0.325-4.72-0.505-7.145-0.505c-28.54,0-51.757,23.218-51.757,51.757
	c0,14.246,5.787,27.166,15.132,36.534H98.786c-34.987,0-63.349,28.363-63.349,63.349v9.719H21.315c-4.204,0-7.612,3.408-7.612,7.612
	v33.069c0,4.204,3.408,7.612,7.612,7.612H274.01c4.204,0,7.612-3.408,7.612-7.612v-33.069c0-4.204-3.408-7.612-7.612-7.612h-14.119
	v-9.719c0-34.987-28.363-63.349-63.349-63.349h-8.612c9.345-9.368,15.132-22.287,15.132-36.534c0-3.174-0.302-6.277-0.853-9.294
	c34.041,23.865,73.957,35.804,113.875,35.804c50.815,0,101.631-19.337,140.325-58.011c2.98-2.979,3.013-7.82,0.035-10.799
	l-34.57-34.57C418.899,274.263,414.079,274.262,411.106,277.235z M378.03,85.697c4.618-4.617,10.756-7.159,17.284-7.159
	c6.53,0,12.666,2.542,17.283,7.159c9.531,9.53,9.531,25.036,0,34.567c-9.528,9.529-25.034,9.531-34.566,0
	C368.5,110.733,368.5,95.228,378.03,85.697z M361.884,136.411l-17.083,63.755l-46.672-46.672L361.884,136.411z M244.668,453.988
	v9.72h-45.253c-4.204,0-7.612,3.408-7.612,7.612l0,0c0,4.204,3.408,7.612,7.612,7.612h66.984v17.846H28.927v-17.846h134.966
	c4.204,0,7.612-3.408,7.612-7.612l0,0c0-4.204-3.408-7.612-7.612-7.612H50.658v-9.719c0-26.58,21.547-48.126,48.126-48.126h97.757
	C223.121,405.862,244.668,427.409,244.668,453.988z M114.769,354.106c0-20.146,16.388-36.534,36.534-36.534
	c20.145,0,36.534,16.388,36.534,36.534c0,20.145-16.388,36.534-36.534,36.534C131.159,390.639,114.769,374.25,114.769,354.106z"/>
<path d="M395.314,31.205c-4.205,0-7.612,3.408-7.612,7.612s3.407,7.612,7.612,7.612c31.184,0,56.554,25.37,56.554,56.554
	c0,4.204,3.407,7.612,7.612,7.612c4.205,0,7.612-3.408,7.612-7.612C467.091,63.403,434.891,31.205,395.314,31.205z"/>
<path d="M395.314,0c-4.205,0-7.612,3.408-7.612,7.612s3.407,7.612,7.612,7.612c48.39,0,87.758,39.369,87.758,87.757
	c0,4.204,3.407,7.612,7.612,7.612s7.612-3.408,7.612-7.612C498.295,46.198,452.099,0,395.314,0z"/>
<path d="M151.303,325.182c-15.948,0-28.923,12.975-28.923,28.923c0,15.948,12.975,28.923,28.923,28.923s28.923-12.974,28.923-28.923
	C180.226,338.157,167.252,325.182,151.303,325.182z M151.303,367.805c-7.554,0-13.7-6.145-13.7-13.7s6.146-13.7,13.7-13.7
	s13.7,6.146,13.7,13.7S158.857,367.805,151.303,367.805z"/>
<g>
</g>
<g>
</g>
<g>
</g>
<g>
</g>
<g>
</g>
<g>
</g>
<g>
</g>
<g>
</g>
<g>
</g>
<g>
</g>
<g>
</g>
<g>
</g>
<g>
</g>
<g>
</g>
<g>
</g>
</svg>
