<?xml version="1.0" encoding="iso-8859-1"?>
<!-- Generator: Adobe Illustrator 19.0.0, SVG Export Plug-In . SVG Version: 6.00 Build 0)  -->
<svg xmlns="http://www.w3.org/2000/svg" xmlns:xlink="http://www.w3.org/1999/xlink" version="1.1" id="Layer_1" x="0px" y="0px" viewBox="0 0 513.303 513.303" style="enable-background:new 0 0 513.303 513.303;" xml:space="preserve" width="512" height="512">
<g>
	<path style="fill:#D39E7A;" d="M238.585,112.536L238.585,112.536c-9.978,0-18.066-8.089-18.066-18.066V25.566   c0-9.978,8.089-18.066,18.066-18.066h0c9.978,0,18.066,8.089,18.066,18.066V94.47C256.652,104.448,248.563,112.536,238.585,112.536   z"/>
	<path style="fill:#BA8B6A;" d="M328.916,114.956c-11.193-6.427-23.321-11.407-36.132-14.686v173.766   c0,9.978,8.089,18.066,18.066,18.066l0,0c9.978,0,18.066-8.089,18.066-18.066V114.956z"/>
	<path style="fill:#BA8B6A;" d="M74.671,241.052v246.685c0,9.978-8.089,18.066-18.066,18.066h0c-9.978,0-18.066-8.089-18.066-18.066   V241.052"/>
	<path style="fill:#BA8B6A;" d="M74.671,361.302c39.043,58.966,105.964,97.862,181.98,97.862   c120.461,0,218.113-97.652,218.113-218.113c0-108.15-78.718-197.898-181.98-215.117v36.729   c83.195,16.76,145.848,90.254,145.848,178.387c0,100.505-81.475,181.98-181.98,181.98s-181.98-81.475-181.98-181.98   c0-88.133,62.653-161.628,145.848-178.387V25.935C117.257,43.153,38.539,132.902,38.539,241.052"/>
	<g>
		<path style="fill:#904F15;" d="M292.784,62.664V94.47c0,1.945-0.316,3.814-0.884,5.57    c63.227,15.754,110.077,72.907,110.077,141.012c0,80.261-65.064,145.325-145.325,145.325s-145.325-65.064-145.325-145.325    c0-68.104,46.85-125.258,110.077-141.012c-0.569-1.756-0.885-3.625-0.885-5.57V62.664    c-83.195,16.76-145.848,90.254-145.848,178.387c0,100.505,81.475,181.98,181.98,181.98s181.98-81.475,181.98-181.98    C438.632,152.919,375.979,79.424,292.784,62.664z"/>
	</g>
	<path style="fill:#904F15;" d="M274.718,112.536L274.718,112.536c-9.978,0-18.066-8.089-18.066-18.066V25.566   c0-9.978,8.089-18.066,18.066-18.066l0,0c9.978,0,18.066,8.089,18.066,18.066V94.47   C292.784,104.448,284.695,112.536,274.718,112.536z"/>
	<path style="fill:#7C4213;" d="M190.519,71.469v40.154c9.713-4.972,20.058-8.884,30.885-11.582   c-0.569-1.756-0.885-3.625-0.885-5.57V62.664C210.174,64.748,200.148,67.711,190.519,71.469z"/>
	<path style="fill:#A0785D;" d="M74.671,241.052l0,120.25l0,0c8.688,13.121,18.759,25.245,30,36.171v-56.314   C85.716,312.439,74.671,278.038,74.671,241.052z"/>
	<path style="fill:#A0785D;" d="M190.519,71.469c9.629-3.757,19.655-6.72,30-8.804V25.935c-10.262,1.711-20.276,4.15-30,7.24V71.469   z"/>
	<path style="fill:#A0785D;" d="M292.784,131.625l36.132,15v-31.669c-11.193-6.427-23.321-11.407-36.132-14.686V131.625z"/>
	<path d="M428.198,94.52c-33.251-38.883-78.755-65.358-128.638-74.979C296.843,8.343,286.739,0,274.718,0   c-7.047,0-13.437,2.866-18.066,7.494C252.022,2.866,245.632,0,238.585,0c-12.021,0-22.126,8.343-24.842,19.541   C163.86,29.162,118.355,55.637,85.105,94.52c-34.866,40.772-54.067,92.811-54.067,146.532v246.685   c0,14.097,11.469,25.566,25.566,25.566c14.097,0,25.566-11.469,25.566-25.566v-39.321c0-4.142-3.358-7.5-7.5-7.5   c-4.142,0-7.5,3.358-7.5,7.5v39.321c0,5.826-4.74,10.566-10.566,10.566c-5.826,0-10.566-4.74-10.566-10.566V241.052   c0-50.148,17.923-98.726,50.467-136.783c30.251-35.376,71.355-59.755,116.514-69.286v21.646c-0.335,0.079-0.668,0.167-1.003,0.248   c-0.573,0.139-1.145,0.28-1.717,0.424c-0.706,0.178-1.411,0.361-2.115,0.547c-0.566,0.15-1.132,0.301-1.696,0.456   c-0.706,0.194-1.409,0.393-2.112,0.595c-0.56,0.161-1.12,0.323-1.678,0.489c-0.703,0.209-1.403,0.424-2.103,0.642   c-0.554,0.172-1.108,0.343-1.66,0.52c-0.704,0.226-1.406,0.458-2.107,0.692c-0.542,0.181-1.084,0.36-1.623,0.545   c-0.71,0.244-1.417,0.496-2.123,0.749c-0.527,0.188-1.055,0.374-1.58,0.567c-0.72,0.264-1.435,0.537-2.151,0.81   c-0.507,0.193-1.016,0.384-1.522,0.581c-0.734,0.287-1.464,0.584-2.194,0.88c-0.484,0.196-0.969,0.388-1.451,0.588   c-0.766,0.318-1.528,0.647-2.289,0.975c-0.439,0.189-0.881,0.373-1.319,0.566c-0.859,0.378-1.713,0.768-2.567,1.159   c-0.335,0.153-0.673,0.301-1.007,0.457c-2.38,1.106-4.736,2.26-7.067,3.464c-0.325,0.168-0.646,0.342-0.969,0.512   c-0.834,0.437-1.668,0.874-2.495,1.323c-0.423,0.23-0.842,0.467-1.264,0.7c-0.723,0.399-1.446,0.797-2.164,1.206   c-0.461,0.263-0.918,0.533-1.377,0.799c-0.671,0.39-1.343,0.778-2.009,1.176c-0.479,0.286-0.953,0.579-1.429,0.869   c-0.641,0.39-1.282,0.78-1.919,1.178c-0.486,0.304-0.967,0.614-1.45,0.922c-0.62,0.395-1.24,0.791-1.855,1.193   c-0.489,0.32-0.974,0.645-1.46,0.969c-0.602,0.402-1.203,0.804-1.8,1.213c-0.49,0.335-0.977,0.675-1.464,1.015   c-0.587,0.409-1.173,0.82-1.755,1.236c-0.486,0.348-0.97,0.699-1.453,1.051c-0.576,0.42-1.15,0.841-1.721,1.267   c-0.482,0.36-0.962,0.723-1.44,1.087c-0.565,0.43-1.127,0.862-1.687,1.298c-0.477,0.371-0.952,0.745-1.425,1.121   c-0.554,0.44-1.106,0.884-1.656,1.331c-0.469,0.381-0.937,0.764-1.402,1.149c-0.548,0.454-1.092,0.912-1.635,1.372   c-0.459,0.389-0.918,0.779-1.373,1.173c-0.54,0.467-1.077,0.939-1.612,1.412c-0.45,0.397-0.899,0.795-1.345,1.196   c-0.533,0.48-1.061,0.966-1.589,1.452c-0.44,0.405-0.88,0.81-1.316,1.219c-0.528,0.496-1.05,0.997-1.572,1.499   c-0.426,0.41-0.854,0.817-1.277,1.231c-0.526,0.515-1.046,1.037-1.566,1.558c-0.41,0.411-0.823,0.82-1.229,1.235   c-0.528,0.539-1.049,1.086-1.572,1.632c-0.389,0.407-0.781,0.81-1.167,1.22c-0.539,0.574-1.07,1.156-1.602,1.737   c-0.36,0.393-0.724,0.781-1.08,1.177c-0.585,0.65-1.161,1.309-1.738,1.967c-0.293,0.335-0.591,0.665-0.883,1.002   c-0.864,1-1.719,2.009-2.563,3.029c-28.016,33.844-43.445,76.72-43.448,120.728c0,0.004-0.001,0.008-0.001,0.012v177.364   c0,4.142,3.358,7.5,7.5,7.5c4.142,0,7.5-3.358,7.5-7.5v-34.362c42.675,52.098,106.341,82.611,174.48,82.611   c60.264,0,116.92-23.468,159.532-66.081c42.613-42.612,66.081-99.269,66.081-159.532   C482.264,187.331,463.063,135.292,428.198,94.52z M274.718,15c5.826,0,10.566,4.74,10.566,10.566v0.369v36.729V94.47   c0,0.322-0.02,0.639-0.048,0.954c-0.012,0.126-0.029,0.252-0.045,0.378c-0.023,0.18-0.05,0.359-0.082,0.536   c-0.028,0.156-0.058,0.311-0.093,0.466c-0.032,0.14-0.07,0.277-0.107,0.414c-0.045,0.167-0.088,0.334-0.141,0.5   c-1.374,4.241-5.357,7.318-10.05,7.318c-5.826,0-10.566-4.74-10.566-10.566V25.566C264.151,19.74,268.892,15,274.718,15z    M228.019,25.566c0-5.826,4.74-10.566,10.566-10.566s10.566,4.74,10.566,10.566V94.47c0,5.826-4.74,10.566-10.566,10.566   c-4.69,0-8.672-3.074-10.048-7.312c-0.056-0.172-0.1-0.347-0.147-0.521c-0.035-0.131-0.071-0.262-0.102-0.395   c-0.036-0.157-0.066-0.315-0.095-0.474c-0.031-0.176-0.059-0.353-0.081-0.531c-0.016-0.126-0.034-0.253-0.045-0.38   c-0.028-0.315-0.048-0.632-0.048-0.954V62.664V25.935V25.566z M122.175,129.875c0.766-0.926,1.543-1.842,2.327-2.75   c0.259-0.3,0.523-0.594,0.784-0.892c0.53-0.606,1.061-1.212,1.599-1.81c0.316-0.351,0.636-0.696,0.954-1.043   c0.49-0.536,0.98-1.072,1.477-1.601c0.347-0.37,0.698-0.734,1.048-1.101c0.477-0.5,0.955-1,1.438-1.494   c0.365-0.373,0.734-0.743,1.102-1.113c0.476-0.478,0.953-0.955,1.434-1.428c0.379-0.372,0.76-0.741,1.142-1.109   c0.479-0.462,0.961-0.922,1.445-1.378c0.389-0.367,0.779-0.731,1.171-1.094c0.488-0.452,0.979-0.9,1.472-1.346   c0.394-0.356,0.788-0.711,1.184-1.064c0.501-0.445,1.005-0.885,1.511-1.324c0.397-0.344,0.793-0.689,1.192-1.029   c0.518-0.441,1.04-0.876,1.562-1.311c0.394-0.328,0.786-0.657,1.182-0.981c0.548-0.448,1.1-0.888,1.653-1.329   c0.378-0.302,0.755-0.607,1.136-0.906c0.61-0.478,1.227-0.948,1.843-1.419c0.329-0.251,0.655-0.507,0.986-0.756   c0.944-0.71,1.895-1.411,2.852-2.101c0.146-0.105,0.295-0.207,0.441-0.311c0.819-0.587,1.641-1.169,2.47-1.741   c0.365-0.252,0.736-0.497,1.103-0.747c0.614-0.417,1.228-0.835,1.848-1.245c0.42-0.277,0.843-0.548,1.265-0.821   c0.574-0.372,1.148-0.745,1.727-1.111c0.445-0.281,0.893-0.557,1.34-0.834c0.563-0.349,1.126-0.697,1.693-1.039   c0.458-0.277,0.92-0.549,1.381-0.822c0.562-0.332,1.124-0.663,1.69-0.989c0.469-0.27,0.94-0.537,1.411-0.803   c0.565-0.319,1.131-0.635,1.699-0.947c0.475-0.261,0.951-0.521,1.429-0.777c0.571-0.307,1.144-0.61,1.719-0.911   c0.479-0.251,0.958-0.501,1.439-0.747c0.583-0.298,1.169-0.592,1.755-0.883c0.476-0.237,0.953-0.475,1.431-0.708   c0.601-0.293,1.206-0.578,1.81-0.864c0.469-0.222,0.938-0.445,1.409-0.663c0.635-0.293,1.273-0.578,1.912-0.863   c0.444-0.199,0.887-0.401,1.332-0.595c0.721-0.315,1.447-0.62,2.172-0.926c0.368-0.155,0.733-0.314,1.102-0.467   c1.092-0.451,2.188-0.891,3.289-1.32c0.193-0.075,0.387-0.145,0.58-0.219c0.916-0.353,1.834-0.701,2.756-1.038   c0.399-0.146,0.801-0.284,1.201-0.427c0.72-0.257,1.44-0.515,2.164-0.763c0.452-0.155,0.906-0.302,1.359-0.453   c0.678-0.226,1.355-0.452,2.036-0.669c0.473-0.151,0.948-0.296,1.422-0.443c0.666-0.207,1.332-0.412,2.001-0.61   c0.484-0.144,0.97-0.283,1.455-0.422c0.663-0.191,1.328-0.379,1.993-0.562c0.491-0.135,0.983-0.266,1.475-0.396   c0.346-0.092,0.694-0.179,1.04-0.269V94.47c0,0.028,0,0.057,0,0.085c-59.92,17.783-103.222,70.506-108.623,133.219   c-0.355,4.127,2.702,7.76,6.829,8.116c4.134,0.365,7.76-2.702,8.116-6.829c4.876-56.614,44.015-104.193,98.145-120.176   c4.61,6.727,12.348,11.151,21.101,11.151c7.047,0,13.437-2.866,18.066-7.494c4.629,4.628,11.019,7.494,18.066,7.494   c3.767,0,7.343-0.826,10.566-2.295v156.294c0,14.097,11.469,25.566,25.566,25.566c14.097,0,25.566-11.469,25.566-25.566v-66.238   c0-4.142-3.358-7.5-7.5-7.5c-4.142,0-7.5,3.358-7.5,7.5v66.238c0,5.826-4.74,10.566-10.566,10.566   c-5.826,0-10.566-4.74-10.566-10.566V110.291c7.278,2.428,14.348,5.466,21.132,9.084v58.422c0,4.142,3.358,7.5,7.5,7.5   c4.142,0,7.5-3.358,7.5-7.5v-49.25c35.636,25.235,58.061,66.665,58.061,112.504c0,75.997-61.828,137.825-137.825,137.825   c-34.293,0-67.158-12.674-92.541-35.688c-25.208-22.854-41.024-53.991-44.535-87.675c-0.43-4.12-4.112-7.113-8.237-6.682   c-4.12,0.429-7.112,4.117-6.682,8.237c3.894,37.363,21.43,71.895,49.378,97.233c28.148,25.52,64.592,39.575,102.617,39.575   c84.268,0,152.825-68.557,152.825-152.825c0-68.043-44.565-127.336-109.193-146.497c0-0.028,0-0.057,0-0.084V72.09   c0.346,0.089,0.692,0.177,1.037,0.268c0.494,0.131,0.988,0.263,1.481,0.398c0.663,0.182,1.324,0.369,1.985,0.559   c0.489,0.14,0.977,0.28,1.464,0.425c0.665,0.197,1.327,0.402,1.989,0.607c0.478,0.148,0.957,0.295,1.434,0.447   c0.674,0.216,1.346,0.439,2.017,0.663c0.46,0.153,0.92,0.303,1.378,0.46c0.711,0.244,1.419,0.497,2.127,0.75   c0.413,0.147,0.827,0.29,1.238,0.44c0.891,0.326,1.778,0.663,2.663,1.004c0.224,0.086,0.449,0.167,0.672,0.254   c1.098,0.427,2.19,0.866,3.279,1.315c0.386,0.16,0.77,0.327,1.155,0.489c0.708,0.298,1.416,0.596,2.12,0.903   c0.457,0.2,0.91,0.407,1.365,0.61c0.627,0.28,1.254,0.56,1.877,0.847c0.482,0.222,0.96,0.451,1.439,0.677   c0.593,0.28,1.187,0.561,1.777,0.848c0.489,0.238,0.976,0.481,1.463,0.724c0.574,0.286,1.148,0.573,1.72,0.866   c0.492,0.252,0.983,0.508,1.473,0.765c0.562,0.295,1.123,0.591,1.682,0.892c0.489,0.263,0.977,0.528,1.463,0.796   c0.556,0.306,1.109,0.615,1.662,0.926c0.483,0.273,0.966,0.546,1.446,0.824c0.552,0.318,1.101,0.641,1.649,0.965   c0.474,0.28,0.948,0.561,1.419,0.845c0.552,0.333,1.1,0.673,1.648,1.012c0.461,0.285,0.923,0.57,1.382,0.86   c0.563,0.356,1.121,0.718,1.679,1.08c0.437,0.283,0.876,0.564,1.31,0.851c0.594,0.393,1.182,0.794,1.772,1.193   c0.393,0.267,0.79,0.53,1.181,0.8c0.763,0.527,1.52,1.064,2.275,1.603c0.271,0.194,0.544,0.385,0.814,0.581   c0.89,0.643,1.775,1.294,2.654,1.955c0.358,0.269,0.711,0.546,1.067,0.818c0.589,0.45,1.179,0.899,1.763,1.357   c0.398,0.312,0.791,0.63,1.186,0.946c0.535,0.427,1.07,0.853,1.6,1.286c0.41,0.335,0.816,0.676,1.223,1.015   c0.509,0.424,1.018,0.848,1.523,1.278c0.409,0.349,0.815,0.702,1.221,1.054c0.496,0.431,0.991,0.862,1.482,1.299   c0.405,0.36,0.809,0.723,1.211,1.087c0.483,0.437,0.965,0.877,1.444,1.32c0.4,0.37,0.798,0.742,1.194,1.115   c0.477,0.45,0.952,0.903,1.425,1.359c0.388,0.374,0.775,0.749,1.16,1.126c0.475,0.466,0.945,0.936,1.415,1.408   c0.375,0.376,0.749,0.752,1.121,1.132c0.476,0.487,0.947,0.98,1.418,1.473c0.356,0.372,0.713,0.744,1.065,1.119   c0.49,0.522,0.974,1.051,1.458,1.58c0.324,0.354,0.651,0.706,0.973,1.063c0.531,0.59,1.055,1.189,1.579,1.787   c0.267,0.305,0.538,0.606,0.802,0.913c0.784,0.908,1.559,1.823,2.325,2.748c25.797,31.164,40.003,70.647,40.003,111.176   c0,96.209-78.271,174.48-174.48,174.48c-96.208,0-174.48-78.272-174.48-174.48C82.171,200.522,96.378,161.039,122.175,129.875z    M256.651,451.664c-70.118,0-135.164-34.614-174.48-92.683v-44.051c28.851,67.879,96.197,115.601,174.48,115.601   c104.48,0,189.48-85.001,189.48-189.48c0-6.877-0.377-13.726-1.119-20.518c-4.01-36.675-18.689-71.664-42.329-100.223   c-0.844-1.02-1.699-2.029-2.563-3.029c-0.291-0.337-0.589-0.667-0.883-1.002c-0.577-0.658-1.152-1.317-1.738-1.967   c-0.357-0.396-0.72-0.784-1.08-1.177c-0.532-0.581-1.063-1.163-1.602-1.737c-0.387-0.412-0.781-0.817-1.171-1.225   c-0.52-0.544-1.039-1.089-1.566-1.626c-0.409-0.418-0.825-0.829-1.238-1.243c-0.517-0.519-1.034-1.038-1.557-1.55   c-0.423-0.414-0.852-0.823-1.279-1.233c-0.523-0.502-1.045-1.004-1.573-1.5c-0.435-0.409-0.875-0.812-1.313-1.216   c-0.528-0.487-1.057-0.973-1.591-1.454c-0.446-0.402-0.896-0.799-1.345-1.196c-0.535-0.473-1.071-0.945-1.611-1.411   c-0.456-0.394-0.915-0.785-1.375-1.174c-0.542-0.46-1.086-0.917-1.633-1.371c-0.465-0.385-0.932-0.767-1.4-1.148   c-0.551-0.448-1.104-0.893-1.66-1.334c-0.472-0.375-0.946-0.748-1.422-1.118c-0.56-0.436-1.123-0.869-1.688-1.299   c-0.479-0.364-0.958-0.727-1.44-1.087c-0.571-0.426-1.144-0.847-1.72-1.267c-0.484-0.353-0.969-0.705-1.456-1.053   c-0.581-0.416-1.166-0.826-1.752-1.235c-0.487-0.34-0.975-0.681-1.466-1.016c-0.597-0.408-1.198-0.81-1.799-1.211   c-0.487-0.325-0.973-0.651-1.463-0.971c-0.614-0.402-1.233-0.797-1.852-1.192c-0.483-0.308-0.966-0.619-1.452-0.923   c-0.636-0.398-1.278-0.788-1.919-1.178c-0.476-0.29-0.951-0.583-1.429-0.869c-0.667-0.398-1.339-0.787-2.011-1.177   c-0.458-0.266-0.915-0.536-1.375-0.799c-0.717-0.409-1.441-0.807-2.164-1.206c-0.422-0.233-0.84-0.471-1.264-0.7   c-0.824-0.447-1.654-0.882-2.483-1.316c-0.328-0.172-0.653-0.349-0.982-0.519c-2.331-1.203-4.687-2.358-7.066-3.463   c-0.336-0.156-0.675-0.305-1.012-0.459c-0.852-0.39-1.704-0.779-2.561-1.156c-0.44-0.193-0.884-0.379-1.325-0.569   c-0.76-0.327-1.52-0.656-2.284-0.973c-0.483-0.201-0.97-0.393-1.454-0.59c-0.729-0.295-1.457-0.592-2.189-0.878   c-0.507-0.198-1.017-0.389-1.526-0.583c-0.715-0.272-1.43-0.545-2.148-0.809c-0.525-0.193-1.053-0.379-1.58-0.567   c-0.707-0.252-1.413-0.505-2.123-0.749c-0.54-0.186-1.083-0.365-1.625-0.546c-0.701-0.234-1.402-0.467-2.106-0.692   c-0.552-0.177-1.106-0.349-1.66-0.52c-0.7-0.217-1.4-0.432-2.103-0.642c-0.558-0.166-1.118-0.328-1.678-0.489   c-0.703-0.202-1.407-0.401-2.112-0.595c-0.564-0.155-1.13-0.307-1.696-0.456c-0.704-0.186-1.409-0.369-2.115-0.547   c-0.572-0.144-1.144-0.285-1.717-0.424c-0.335-0.081-0.667-0.169-1.003-0.248V34.982c45.159,9.531,86.263,33.91,116.514,69.286   c32.544,38.058,50.467,86.635,50.467,136.783C467.264,357.184,372.784,451.664,256.651,451.664z"/>
</g>















</svg>
