<?xml version="1.0" encoding="iso-8859-1"?>
<!-- Generator: Adobe Illustrator 19.0.0, SVG Export Plug-In . SVG Version: 6.00 Build 0)  -->
<svg version="1.1" id="Capa_1" xmlns="http://www.w3.org/2000/svg" xmlns:xlink="http://www.w3.org/1999/xlink" x="0px" y="0px"
	 viewBox="0 0 510.207 510.207" style="enable-background:new 0 0 510.207 510.207;" xml:space="preserve">
<g>
	<g>
		<g>
			<path d="M54.701,441.861c3.808,2.395,7.248,5.33,10.213,8.713c2.868,3.473,5.215,7.344,6.967,11.493l69.303-42.286
				l-32.658-38.464L54.701,441.861z"/>
			<path d="M28.845,452.248c-6.801-0.012-13.39,2.367-18.615,6.72c-5.823,4.829-9.469,11.79-10.124,19.327
				c-0.655,7.537,1.737,15.022,6.641,20.783c10.363,12.084,28.504,13.618,40.75,3.447c5.83-4.825,9.481-11.787,10.136-19.326
				c0.655-7.539-1.742-15.026-6.652-20.784C45.454,455.938,37.359,452.22,28.845,452.248z"/>
			<path d="M117.778,338.968c-3.173-3.739-8.887-6.4-12.654-4.224c-1.595,0.879-2.678,2.464-2.917,4.27
				c-0.402,3.793,0.786,7.584,3.282,10.469l67.081,79.013c3.035,3.584,9.618,6.921,13.605,3.657
				c1.289-1.063,2.061-2.627,2.121-4.297c0.114-3.592-1.112-7.098-3.438-9.838L117.778,338.968z"/>
			<path d="M446.582,20.202c-6.74,48.543-24.898,94.794-52.983,134.958c-1.754,2.889-4.959,4.575-8.334,4.383
				c-3.375-0.192-6.368-2.23-7.784-5.299c-1.416-3.069-1.022-6.669,1.023-9.36c24.63-35.647,41.28-76.188,48.814-118.857
				l-53.211,16.082c-6.171,18.56-30.318,87.515-62.875,132.654c-50.021,69.422-133.614,152.466-158.702,176.887l31.369,36.919
				c0.992-0.674,2.107-1.143,3.282-1.381c10.743-4.654,81.527-37.934,193.198-145.819C447.797,176.829,493.215,92.726,510.207,0.956
				L446.582,20.202z M364.927,191.996h-0.055c-5.678,6.4-11.703,12.754-17.911,18.862c-2.297,2.445-5.748,3.436-8.992,2.581
				c-3.244-0.854-5.759-3.417-6.554-6.676c-0.795-3.259,0.259-6.692,2.746-8.943c5.906-5.815,11.639-11.886,17.051-17.957
				c3.35-3.787,9.136-4.141,12.923-0.791C367.924,182.423,368.278,188.209,364.927,191.996z"/>
		</g>
	</g>
</g>
<g>
</g>
<g>
</g>
<g>
</g>
<g>
</g>
<g>
</g>
<g>
</g>
<g>
</g>
<g>
</g>
<g>
</g>
<g>
</g>
<g>
</g>
<g>
</g>
<g>
</g>
<g>
</g>
<g>
</g>
</svg>
