<svg id="Capa_1" enable-background="new 0 0 504.5 504.5" height="512" viewBox="0 0 504.5 504.5" width="512" xmlns="http://www.w3.org/2000/svg"><g><path d="m233.961 158.397h47.066v33.116h-47.066z" fill="#868eaf" transform="matrix(.707 -.707 .707 .707 -48.294 233.32)"/><circle cx="292.224" cy="140.225" fill="#bdd3dd" r="33.116"/><path d="m137.734 312.872c-3.226-2.766-6.37-5.677-9.425-8.731-62.599-62.599-64.597-162.852-5.993-227.854 3.172-3.518 8.655-3.649 12.005-.299l222.143 222.142c3.345 3.344 3.226 8.824-.287 11.991-42.848 38.638-101.016 50.941-153.62 36.908" fill="#bdd3dd"/><g><g><g><path d="m309.366 211.974c-3.43 0-6.567-2.291-7.494-5.762-1.106-4.142 1.355-8.395 5.497-9.501 9.87-2.635 18.93-7.871 26.199-15.142 11.044-11.043 17.126-25.727 17.126-41.345s-6.082-30.301-17.126-41.345c-11.043-11.044-25.726-17.125-41.344-17.125-15.617 0-30.3 6.082-41.343 17.125-7.271 7.27-12.507 16.329-15.142 26.198-1.106 4.143-5.358 6.605-9.501 5.497-4.141-1.106-6.602-5.359-5.497-9.501 3.338-12.503 9.965-23.973 19.163-33.17 13.975-13.975 32.556-21.672 52.32-21.672 19.765 0 38.346 7.696 52.322 21.672 13.976 13.975 21.672 32.557 21.672 52.321s-7.696 38.346-21.672 52.321c-9.198 9.198-20.669 15.825-33.172 19.163-.672.181-1.345.266-2.008.266z" fill="#a0c8ff"/></g><g><path d="m335.064 237.658c-2.896 0-5.677-1.63-7.009-4.418-1.847-3.868-.21-8.502 3.658-10.349 9.359-4.471 17.862-10.495 25.272-17.904 17.298-17.298 26.825-40.298 26.825-64.761s-9.527-47.463-26.826-64.761c-17.298-17.298-40.297-26.825-64.76-26.825-24.464 0-47.464 9.527-64.761 26.825-7.41 7.409-13.433 15.911-17.903 25.27-1.848 3.868-6.483 5.504-10.349 3.658-3.869-1.847-5.506-6.481-3.658-10.349 5.232-10.953 12.275-20.897 20.933-29.555 20.23-20.231 47.128-31.372 75.739-31.372 28.609 0 55.507 11.141 75.738 31.372 20.23 20.23 31.372 47.128 31.372 75.738s-11.142 55.508-31.372 75.738c-8.66 8.66-18.604 15.703-29.558 20.935-1.08.513-2.219.758-3.341.758z" fill="#a0c8ff"/></g><g><path d="m359.53 262.119c-2.655 0-5.242-1.363-6.69-3.816-2.18-3.691-.955-8.45 2.737-10.63 9.004-5.317 17.356-11.801 24.825-19.27 48.622-48.621 48.622-127.734 0-176.356-23.552-23.553-54.867-36.524-88.177-36.524-33.309 0-64.624 12.971-88.176 36.524-7.472 7.471-13.956 15.825-19.274 24.83-2.18 3.692-6.938 4.917-10.63 2.737s-4.917-6.939-2.737-10.63c5.982-10.129 13.269-19.52 21.663-27.913 26.484-26.485 61.697-41.071 99.153-41.071s72.669 14.586 99.155 41.071c54.673 54.674 54.673 143.634 0 198.308-8.391 8.392-17.781 15.679-27.909 21.661-1.239.732-2.598 1.079-3.94 1.079z" fill="#a0c8ff"/></g></g></g><g><path d="m202.576 322.363c0-18.289-14.827-33.116-33.116-33.116s-33.116 14.827-33.116 33.116v38.29h66.232z" fill="#868eaf"/><path d="m169.46 289.247c-4.196 0-8.206.789-11.901 2.212 12.408 4.782 21.215 16.811 21.215 30.904v38.29h23.802v-38.29c0-18.29-14.826-33.116-33.116-33.116z" fill="#7d83ad"/><path d="m243.971 438.268-41.395-82.789h-66.232l-41.394 82.789v9.314h149.021z" fill="#bdd3dd"/><path d="m202.576 355.479h-23.802l41.395 82.789v9.314h23.802v-9.314z" fill="#abc4d6"/><path d="m252.25 476.559h-165.579v-30.29c0-4.418 3.582-8 8-8h149.579c4.418 0 8 3.582 8 8z" fill="#a0c8ff"/><path d="m243.971 438.268h-23.802c4.572 0 8.279 3.707 8.279 8.279v30.011h23.802v-30.011c0-4.572-3.707-8.279-8.279-8.279z" fill="#91b2fa"/></g><path d="m315.641 116.809c-9.574-9.574-23.548-12.052-35.409-7.452 4.161 1.614 8.065 4.093 11.424 7.452 12.932 12.933 12.932 33.9 0 46.833-3.359 3.359-7.263 5.838-11.424 7.452 11.861 4.6 25.835 2.122 35.409-7.452 12.932-12.933 12.932-33.901 0-46.833z" fill="#abc4d6"/><path d="m356.464 298.13-222.144-222.143c-3.35-3.349-8.833-3.219-12.004.299-1.829 2.029-3.599 4.092-5.31 6.188l215.655 215.656c3.344 3.344 3.226 8.824-.287 11.991-28.281 25.503-63.237 39.524-98.861 42.081 43.548 3.113 88.092-10.906 122.663-42.081 3.513-3.167 3.632-8.646.288-11.991z" fill="#abc4d6"/><path d="m103.002 102.479 226.965 226.964c4.509-2.682 8.917-5.597 13.208-8.745l-231.426-231.426c-3.148 4.291-6.064 8.698-8.747 13.207z" fill="#a0c8ff"/><path d="m476.061 504.5h-447.622c-4.418 0-8-3.582-8-8v-17.116c0-4.418 3.582-8 8-8h447.623c4.418 0 8 3.582 8 8v17.116c-.001 4.418-3.582 8-8.001 8z" fill="#f9f5f3"/><path d="m475.782 471.384h-23.802c4.572 0 8.279 3.707 8.279 8.279v16.558c0 4.572-3.707 8.279-8.279 8.279h23.802c4.572 0 8.279-3.707 8.279-8.279v-16.558c0-4.572-3.706-8.279-8.279-8.279z" fill="#f9eae0"/></g></svg>