<?xml version="1.0" encoding="utf-8"?>
<!-- Generator: Adobe Illustrator 24.0.1, SVG Export Plug-In . SVG Version: 6.00 Build 0)  -->
<svg version="1.1" id="Capa_1" xmlns="http://www.w3.org/2000/svg" xmlns:xlink="http://www.w3.org/1999/xlink" x="0px" y="0px"
	 viewBox="0 0 512 512" style="enable-background:new 0 0 512 512;" xml:space="preserve">
<style type="text/css">
	.st0{fill:#E60022;stroke:#D6E047;stroke-miterlimit:10;}
</style>
<g>
	<g>
		<path d="M467.8,431.9l-36.6-61.1c-16.9-28.2-25.9-60.5-25.9-93.3V224c0-67.5-45.1-124.6-106.7-143V42.7C298.7,19.1,279.5,0,256,0
			s-42.7,19.1-42.7,42.7V81c-61.6,18.4-106.7,75.5-106.7,143v53.5c0,32.9-8.9,65.1-25.8,93.3l-36.6,61.1c-2,3.3-2,7.4-0.1,10.8
			c1.9,3.3,5.4,5.4,9.3,5.4h405.3c3.8,0,7.4-2.1,9.3-5.4C469.8,439.3,469.8,435.1,467.8,431.9z"/>
	</g>
</g>
<g>
	<g>
		<path d="M188.8,469.3c12,25.1,37.5,42.7,67.2,42.7s55.1-17.5,67.2-42.7H188.8z"/>
	</g>
</g>
<circle class="st0" cx="391.3" cy="181" r="97"/>
</svg>
