<svg height="464pt" viewBox="0 0 464 464.66989" width="464pt" xmlns="http://www.w3.org/2000/svg"><path d="m248.78125 9.144531 31.9375 119.203125c3.527344 12.71875 10.839844 22.6875 23.949219 24 0 0 68.546875 10.398438 87.816406 16 19.054687 6.933594 37.703125 14.949219 55.847656 24 18.21875 8 21.457031 28.496094 8 32 0 0-54.335937 10.34375-71.847656 16-14.472656 4.671875-55.886719 24-55.886719 24-13.433594 7.480469-12.800781 17.390625-8 32l47.902344 152.796875c3.203125 13.539063-16 23.203125-31.933594 7.203125l-87.785156-96c-11.917969-10.152344-20-10.152344-31.9375 0l-87.8125 96c-16 16-35.144531 5.535156-31.929688-8l47.894532-152c4.867187-14.625 5.480468-24.539062-8-32l-63.863282-31.449218c-16.09375-7.9375-64.421874-48.550782-64.421874-48.550782-9.730469-9.144531-15.394532-32 8.550781-32 21.058593 4.261719 42.410156 6.933594 63.871093 8 20.054688 0 79.832032-8 79.832032-8 13.105468-1.3125 20.425781-11.28125 23.953125-24l31.925781-119.203125c3.324219-5.664062 9.402344-9.144531 15.96875-9.144531 6.570312 0 12.644531 3.480469 15.96875 9.144531zm0 0" fill="#f9bb4b"/><path d="m152.332031 200.347656c0 8.835938-7.160156 16-16 16-8.835937 0-16-7.164062-16-16 0-8.839844 7.164063-16 16-16 8.839844 0 16 7.160156 16 16zm0 0" fill="#fef59c"/><path d="m264.332031 136.347656c0 8.835938-7.160156 16-16 16-8.835937 0-16-7.164062-16-16 0-8.839844 7.164063-16 16-16 8.839844 0 16 7.160156 16 16zm0 0" fill="#fef59c"/><path d="m280.332031 248.347656c0 13.253906-10.742187 24-24 24-13.253906 0-24-10.746094-24-24 0-13.257812 10.746094-24 24-24 13.257813 0 24 10.742188 24 24zm0 0" fill="#fef59c"/><path d="m192.332031 328.347656c0 8.835938-7.160156 16-16 16-8.835937 0-16-7.164062-16-16 0-8.839844 7.164063-16 16-16 8.839844 0 16 7.160156 16 16zm0 0" fill="#fef59c"/><path d="m368.332031 216.347656c0 8.835938-7.160156 16-16 16-8.835937 0-16-7.164062-16-16 0-8.839844 7.164063-16 16-16 8.839844 0 16 7.160156 16 16zm0 0" fill="#fef59c"/><g fill="#50b4f8"><path d="m296.332031 344.347656c0 8.835938-7.160156 16-16 16-8.835937 0-16-7.164062-16-16 0-8.839844 7.164063-16 16-16 8.839844 0 16 7.160156 16 16zm0 0"/><path d="m184.332031 168.347656h16v16h-16zm0 0"/><path d="m224.332031 184.347656h16v16h-16zm0 0"/><path d="m232.332031 304.347656h16v16h-16zm0 0"/><path d="m184.332031 264.347656h16v16h-16zm0 0"/><path d="m224.332031 80.347656h16v16h-16zm0 0"/><path d="m72.332031 192.347656h16v16h-16zm0 0"/><path d="m144.332031 376.347656h16v16h-16zm0 0"/></g></svg>