<svg id="Capa_1" enable-background="new 0 0 511.173 511.173" height="512" viewBox="0 0 511.173 511.173" width="512" xmlns="http://www.w3.org/2000/svg"><g id="XMLID_94_"><path id="XMLID_1206_" d="m341.025 155.405c-9.343 0-18.556 1.598-27.216 4.682-14.346-20.133-38.303-32.545-64.437-32.545s-50.09 12.413-64.436 32.545c-8.66-3.084-17.874-4.682-27.216-4.682-43.006 0-77.994 33.48-77.994 74.633v14.494h339.293v-14.494c-.001-41.152-34.988-74.633-77.994-74.633z" fill="#fef2f3"/><path id="XMLID_197_" d="m341.025 155.405c-9.343 0-18.556 1.598-27.216 4.682-14.346-20.133-38.303-32.545-64.437-32.545v116.991h169.646v-14.494c0-41.153-34.987-74.634-77.993-74.634z" fill="#e4ebef"/><g><path id="XMLID_123_" d="m58.716 495.823h-30.79c0-36.867 29.994-66.861 66.861-66.861h10.547l-10.547 30.79c-19.889 0-36.071 16.181-36.071 36.071z" fill="#a7d2d7"/><path id="XMLID_124_" d="m483.247 495.823h-30.79c0-19.89-16.182-36.071-36.071-36.071l-10.547-30.79h10.547c36.867 0 66.861 29.994 66.861 66.861z" fill="#7ba0b0"/><path id="XMLID_1487_" d="m17.108 282.565 17.651 124.296c4.051 30.165 29.63 52.89 59.576 52.89h321.66c29.943 0 55.519-22.718 59.574-52.877l17.833-124.328z" fill="#f8e5ca"/><path d="m249.372 459.752h166.623c29.943 0 55.519-22.718 59.574-52.877l17.832-124.328-244.029.01z" fill="#f1c992"/></g><path id="XMLID_127_" d="m54.79 259.104h-30.79v-135.989c0-28.296 23.02-51.316 51.317-51.316s51.317 23.02 51.317 51.316v16.422h-30.79v-16.422c0-11.318-9.208-20.526-20.527-20.526s-20.527 9.208-20.527 20.526z" fill="#7ba0b0"/><path id="XMLID_1682_" d="m0 227.587h511.173v66.762h-511.173z" fill="#a7d2d7"/><ellipse id="XMLID_130_" cx="409.046" cy="52.64" fill="#e4ebef" rx="37.29" ry="37.29" transform="matrix(.973 -.23 .23 .973 -1.152 95.388)"/><path id="XMLID_139_" d="m134.332 53.324c8.053 0 15.767-7.081 15.395-15.395-.374-8.341-6.764-15.395-15.395-15.395-8.053 0-15.767 7.081-15.395 15.395.373 8.341 6.764 15.395 15.395 15.395z" fill="#fef2f3"/><path id="XMLID_143_" d="m473.021 175.458c8.053 0 15.767-7.081 15.395-15.395-.374-8.341-6.764-15.395-15.395-15.395-8.053 0-15.767 7.081-15.395 15.395.374 8.341 6.764 15.395 15.395 15.395z" fill="#e4ebef"/><path id="XMLID_195_" d="m249.372 227.587h261.801v66.762h-261.801z" fill="#7ba0b0"/></g></svg>