<svg id="Capa_1" enable-background="new 0 0 512 512" height="512" viewBox="0 0 512 512" width="512" xmlns="http://www.w3.org/2000/svg"><g><path d="m256 0c-141.483 0-256 114.497-256 256 0 141.483 114.497 256 256 256 141.483 0 256-114.497 256-256 0-141.483-114.497-256-256-256zm0 492c-130.43 0-236-105.551-236-236 0-130.43 105.551-236 236-236 130.43 0 236 105.551 236 236 0 130.43-105.551 236-236 236z"/><path d="m383.93 170.129-34.43 18.252v-3.336c0-18.221-14.824-33.045-33.045-33.045h-203.91c-18.221 0-33.045 14.824-33.045 33.045v141.91c0 18.221 14.824 33.045 33.045 33.045h203.91c18.221 0 33.045-14.824 33.045-33.045v-3.336l34.43 18.252c22.022 11.676 48.57-4.28 48.57-29.226v-113.291c0-24.927-26.53-40.909-48.57-29.225zm-54.43 156.826c0 7.193-5.852 13.045-13.045 13.045h-203.91c-7.193 0-13.045-5.852-13.045-13.045v-141.91c0-7.193 5.852-13.045 13.045-13.045h203.91c7.193 0 13.045 5.852 13.045 13.045zm83-14.309c0 9.881-10.464 16.185-19.203 11.556l-43.797-23.219v-89.967l43.797-23.218c8.731-4.627 19.203 1.666 19.203 11.556z"/><path d="m235 194h-57c-5.522 0-10 4.478-10 10s4.478 10 10 10h57c5.522 0 10-4.478 10-10s-4.478-10-10-10z"/><path d="m138 194c-5.522 0-10 4.478-10 10s4.478 10 10 10h.025c5.522 0 9.987-4.478 9.987-10s-4.49-10-10.012-10z"/></g></svg>