<svg height="512" viewBox="0 0 64 64" width="512" xmlns="http://www.w3.org/2000/svg"><path d="m61 7h-3v-4a1 1 0 0 0 -1-1h-8a1 1 0 0 0 -1 1v4h-45a1 1 0 0 0 -.768 1.64l5 6a1 1 0 0 0 .768.36h4v2h-4a1 1 0 0 0 -1 1v28a1 1 0 0 0 1 1h40v14a1 1 0 0 0 1 1h8a1 1 0 0 0 1-1v-46h3a1 1 0 0 0 1-1v-6a1 1 0 0 0 -1-1zm-13 38h-39v-26h39zm-34-28v-2h28v2zm34 0h-4v-2h4zm0-4h-39.532l-3.333-4h42.865zm8 47h-2v-11h-2v11h-2v-56h6zm4-47h-2v-4h2z"/><path d="m18 31a1 1 0 0 0 1-1v-3h2a1 1 0 0 0 0-2h-2v-2h3a1 1 0 0 0 0-2h-4a1 1 0 0 0 -1 1v8a1 1 0 0 0 1 1z"/><path d="m26 31h5a1 1 0 0 0 1-1v-8a1 1 0 0 0 -1-1h-5a1 1 0 0 0 -1 1v8a1 1 0 0 0 1 1zm1-8h3v6h-3z"/><path d="m35 31a1 1 0 0 0 1-1v-1.919l3.375 2.7a1 1 0 1 0 1.25-1.562l-2.774-2.219h2.149a1 1 0 0 0 1-1v-4a1 1 0 0 0 -1-1h-5a1 1 0 0 0 -1 1v8a1 1 0 0 0 1 1zm1-8h3v2h-3z"/><path d="m12 43a1 1 0 0 0 1-1v-1.919l3.375 2.7a1 1 0 1 0 1.25-1.562l-2.774-2.219h2.149a1 1 0 0 0 1-1v-4a1 1 0 0 0 -1-1h-5a1 1 0 0 0 -1 1v8a1 1 0 0 0 1 1zm1-8h3v2h-3z"/><path d="m20 34v8a1 1 0 0 0 1 1h4a1 1 0 0 0 0-2h-3v-2h3a1 1 0 0 0 0-2h-3v-2h3a1 1 0 0 0 0-2h-4a1 1 0 0 0 -1 1z"/><path d="m30 33h-1a1 1 0 0 0 -1 1v8a1 1 0 0 0 2 0v-6.113l4.152 6.643a1 1 0 0 0 1.848-.53v-8a1 1 0 0 0 -2 0v4.513l-3.152-5.043a1 1 0 0 0 -.848-.47z"/><path d="m45 33h-6a1 1 0 0 0 0 2h2v7a1 1 0 0 0 2 0v-7h2a1 1 0 0 0 0-2z"/><path d="m52 6h2v2h-2z"/><path d="m52 10h2v2h-2z"/><path d="m52 45h2v2h-2z"/><path d="m11 21h2v2h-2z"/><path d="m44 21h2v2h-2z"/></svg>